<?xml version="1.0" encoding="iso-8859-1"?>
<!-- Generator: Adobe Illustrator 13.0.2, SVG Export Plug-In . SVG Version: 6.00 Build 14948)  -->
<!DOCTYPE svg PUBLIC "-//W3C//DTD SVG 1.1//EN" "http://www.w3.org/Graphics/SVG/1.1/DTD/svg11.dtd">
<svg version="1.1" id="Layer_1" xmlns="http://www.w3.org/2000/svg" xmlns:xlink="http://www.w3.org/1999/xlink" x="0px" y="0px"
	 width="30px" height="30px" viewBox="0 0 30 30" enable-background="new 0 0 30 30" xml:space="preserve">
<path fill="#72778D" d="M27.242,7.985l-5.19-5.192c-0.476-0.474-1.244-0.474-1.718,0c-0.475,0.474-0.475,1.242,0,1.716l5.19,5.192
	c0.476,0.474,1.241,0.474,1.718,0C27.714,9.227,27.714,8.457,27.242,7.985z"/>
<path fill="#72778D" d="M26.646,12.638L17.486,3.48c-0.475-0.476-1.242-0.474-1.716,0c-0.474,0.474-0.474,1.242,0,1.716l9.157,9.157
	c0.473,0.474,1.242,0.474,1.718,0C27.117,13.879,27.117,13.109,26.646,12.638z"/>
<path fill="#72778D" d="M25.996,17.325L12.385,3.712c-0.474-0.474-1.242-0.474-1.716,0c-0.474,0.474-0.474,1.242,0,1.718
	l13.613,13.61c0.472,0.473,1.242,0.473,1.714-0.002C26.472,18.566,26.472,17.797,25.996,17.325z"/>
</svg>
