<?xml version="1.0" encoding="iso-8859-1"?>
<!-- Generator: Adobe Illustrator 13.0.2, SVG Export Plug-In . SVG Version: 6.00 Build 14948)  -->
<!DOCTYPE svg PUBLIC "-//W3C//DTD SVG 1.1//EN" "http://www.w3.org/Graphics/SVG/1.1/DTD/svg11.dtd">
<svg version="1.1" id="Layer_1" xmlns="http://www.w3.org/2000/svg" xmlns:xlink="http://www.w3.org/1999/xlink" x="0px" y="0px"
	 width="512px" height="512px" viewBox="0 0 512 512" enable-background="new 0 0 512 512" xml:space="preserve">
<path d="M-759.271-290.382c-35.62,0-64.497,28.876-64.497,64.497c0,35.621,28.876,64.497,64.497,64.497s64.497-28.876,64.497-64.497
	C-694.773-261.506-723.649-290.382-759.271-290.382z M-759.271-172.638c-29.407,0-53.247-23.84-53.247-53.248
	c0-29.407,23.84-53.247,53.247-53.247c29.408,0,53.248,23.84,53.248,53.247C-706.023-196.478-729.863-172.638-759.271-172.638z"/>
<polygon fill="#FFFFFF" points="-692.362,-272.383 -758.358,-225.885 -692.599,-150.652 "/>
<path id="undo-2-icon" fill="#90A2B7" d="M387.928,110.335c-80.324-80.325-210.479-80.443-290.955-0.363L63.842,76.84
	l-0.105,122.838l122.838-0.104l-31.336-31.335c48.299-47.9,126.279-47.782,174.424,0.363c48.27,48.27,48.27,126.529,0,174.797
	c-24.136,24.135-55.767,36.201-87.398,36.201v82.398c52.721,0,105.439-20.111,145.664-60.336
	C468.375,321.215,468.375,190.783,387.928,110.335z"/>
<path d="M-942.792-225.66c0-34.649,24.255-62.617,57.419-62.617c36.382,0,56.43,28.709,56.43,63.359v3.465h-99.989
	c1.238,25.987,18.562,47.52,46.777,47.52c15.097,0,28.957-5.692,39.104-16.583l6.683,8.415
	c-11.88,12.375-26.978,19.305-46.777,19.305C-918.042-162.796-942.792-188.782-942.792-225.66z M-885.62-277.139
	c-28.214,0-42.322,24.75-43.312,45.54h86.872C-842.308-251.894-855.672-277.139-885.62-277.139z"/>
<path d="M-732.646-230.452c0-5.445,4.702-9.652,9.9-9.652c5.445,0,9.9,4.208,9.9,9.652c0,5.444-4.455,9.9-9.9,9.9
	C-727.944-220.552-732.646-225.007-732.646-230.452z M-729.182-177.781v-23.961h12.87v23.961H-729.182z"/>
</svg>
