<?xml version="1.0" ?><svg height="182px" version="1.1" viewBox="0 0 182 182" width="182px" xmlns="http://www.w3.org/2000/svg" xmlns:sketch="http://www.bohemiancoding.com/sketch/ns" xmlns:xlink="http://www.w3.org/1999/xlink"><title/><description/><defs><circle cx="35" cy="35" id="path-1" r="35"/><mask fill="white" id="mask-2"><use xlink:href="#path-1"/></mask><circle cx="35" cy="35" id="path-3" r="35"/><mask fill="white" id="mask-4"><use xlink:href="#path-3"/></mask><path d="M0.0238095238,3.33333333 L0.0238095238,0 L3.02380952,0 L3.02380952,3.33333333 L3.02380952,3.33333333 L0.0238095238,3.33333333 L0.0238095238,3.33333333 Z M1.52380952,1.0952381 L1.52380952,1.66666667 L3.02380952,1.66666667 L3.02380952,1.0952381 L3.02380952,1.0952381 L1.52380952,1.0952381 L1.52380952,1.0952381 Z M1.52380952,1.0952381" id="path-5"/><mask fill="white" id="mask-6"><use xlink:href="#path-5"/></mask></defs><g fill="none" fill-rule="evenodd" id="Ameria" stroke="none" stroke-width="1"><g id="Group" transform="translate(-237.000000, -399.000000)"><g id="Brazil" transform="translate(238.000000, 400.000000)"><circle cx="90" cy="90" d="M90,180 C139.70563,180 180,139.70563 180,90 C180,40.2943701 139.70563,0 90,0 C40.2943701,0 0,40.2943701 0,90 C0,139.70563 40.2943701,180 90,180 Z M90,180" fill="#57BB63" id="Oval-15-copy" r="90"/><path d="M90,30 L5,90 L90,150 L175,90 L90,30 Z M90,30" fill="#E5B731" id="Rectangle-87"/><circle cx="89" cy="90" d="M89,125 C108.329967,125 124,109.329967 124,90 C124,70.6700328 108.329967,55 89,55 C69.6700328,55 54,70.6700328 54,90 C54,109.329967 69.6700328,125 89,125 Z M89,125" fill="#346DA6" id="Oval-15-copy-2" r="35"/><g fill="#FFFFFF" id="stars" transform="translate(58.000000, 77.000000)"><polygon d="M43.5,2.25 L42.6183222,2.71352554 L42.7867076,1.73176277 L42.0734152,1.03647454 L43.0591612,0.893237152 L43.5,1.66533454e-16 L43.9408391,0.893237372 L44.926585,1.03647526 L44.2132923,1.73176296 L44.3816778,2.71352556 L43.5,2.25 Z M43.5,2.25" id="Star-39" points="43.5 2.25 42.6183222 2.71352554 42.7867076 1.73176277 42.0734152 1.03647454 43.0591612 0.893237152 43.5 1.66533454e-16 43.9408391 0.893237372 44.926585 1.03647526 44.2132923 1.73176296 44.3816778 2.71352556 "/><polygon d="M41.5,12.25 L40.6183222,12.7135255 L40.7867076,11.7317628 L40.0734152,11.0364745 L41.0591612,10.8932372 L41.5,10 L41.9408391,10.8932374 L42.926585,11.0364753 L42.2132923,11.731763 L42.3816778,12.7135256 L41.5,12.25 Z M41.5,12.25" id="Star-39-copy" points="41.5 12.25 40.6183222 12.7135255 40.7867076 11.7317628 40.0734152 11.0364745 41.0591612 10.8932372 41.5 10 41.9408391 10.8932374 42.926585 11.0364753 42.2132923 11.731763 42.3816778 12.7135256 "/><polygon d="M32.5,19.25 L31.6183222,19.7135255 L31.7867076,18.7317628 L31.0734152,18.0364745 L32.0591612,17.8932372 L32.5,17 L32.9408391,17.8932374 L33.926585,18.0364753 L33.2132923,18.731763 L33.3816778,19.7135256 L32.5,19.25 Z M32.5,19.25" id="Star-39-copy-2" points="32.5 19.25 31.6183222 19.7135255 31.7867076 18.7317628 31.0734152 18.0364745 32.0591612 17.8932372 32.5 17 32.9408391 17.8932374 33.926585 18.0364753 33.2132923 18.731763 33.3816778 19.7135256 "/><polygon d="M35.5,22.25 L34.6183222,22.7135255 L34.7867076,21.7317628 L34.0734152,21.0364745 L35.0591612,20.8932372 L35.5,20 L35.9408391,20.8932374 L36.926585,21.0364753 L36.2132923,21.731763 L36.3816778,22.7135256 L35.5,22.25 Z M35.5,22.25" id="Star-39-copy-3" points="35.5 22.25 34.6183222 22.7135255 34.7867076 21.7317628 34.0734152 21.0364745 35.0591612 20.8932372 35.5 20 35.9408391 20.8932374 36.926585 21.0364753 36.2132923 21.731763 36.3816778 22.7135256 "/><polygon d="M31.5,30.25 L30.6183222,30.7135255 L30.7867076,29.7317628 L30.0734152,29.0364745 L31.0591612,28.8932372 L31.5,28 L31.9408391,28.8932374 L32.926585,29.0364753 L32.2132923,29.731763 L32.3816778,30.7135256 L31.5,30.25 Z M31.5,30.25" id="Star-39-copy-4" points="31.5 30.25 30.6183222 30.7135255 30.7867076 29.7317628 30.0734152 29.0364745 31.0591612 28.8932372 31.5 28 31.9408391 28.8932374 32.926585 29.0364753 32.2132923 29.731763 32.3816778 30.7135256 "/><polygon d="M57.5,27.25 L56.6183222,27.7135255 L56.7867076,26.7317628 L56.0734152,26.0364745 L57.0591612,25.8932372 L57.5,25 L57.9408391,25.8932374 L58.926585,26.0364753 L58.2132923,26.731763 L58.3816778,27.7135256 L57.5,27.25 Z M57.5,27.25" id="Star-39-copy-5" points="57.5 27.25 56.6183222 27.7135255 56.7867076 26.7317628 56.0734152 26.0364745 57.0591612 25.8932372 57.5 25 57.9408391 25.8932374 58.926585 26.0364753 58.2132923 26.731763 58.3816778 27.7135256 "/><polygon d="M61,25.5 L60.4122148,25.809017 L60.5244717,25.1545085 L60.0489435,24.690983 L60.7061075,24.5954914 L61,24 L61.2938927,24.5954916 L61.9510567,24.6909835 L61.4755282,25.1545086 L61.5877852,25.809017 L61,25.5 Z M61,25.5" id="Star-39-copy-6" points="61 25.5 60.4122148 25.809017 60.5244717 25.1545085 60.0489435 24.690983 60.7061075 24.5954914 61 24 61.2938927 24.5954916 61.9510567 24.6909835 61.4755282 25.1545086 61.5877852 25.809017 "/><polygon d="M53,33.5 L52.4122148,33.809017 L52.5244717,33.1545085 L52.0489435,32.690983 L52.7061075,32.5954914 L53,32 L53.2938927,32.5954916 L53.9510567,32.6909835 L53.4755282,33.1545086 L53.5877852,33.809017 L53,33.5 Z M53,33.5" id="Star-39-copy-7" points="53 33.5 52.4122148 33.809017 52.5244717 33.1545085 52.0489435 32.690983 52.7061075 32.5954914 53 32 53.2938927 32.5954916 53.9510567 32.6909835 53.4755282 33.1545086 53.5877852 33.809017 "/><polygon d="M49.5,33.25 L48.6183222,33.7135255 L48.7867076,32.7317628 L48.0734152,32.0364745 L49.0591612,31.8932372 L49.5,31 L49.9408391,31.8932374 L50.926585,32.0364753 L50.2132923,32.731763 L50.3816778,33.7135256 L49.5,33.25 Z M49.5,33.25" id="Star-39-copy-6" points="49.5 33.25 48.6183222 33.7135255 48.7867076 32.7317628 48.0734152 32.0364745 49.0591612 31.8932372 49.5 31 49.9408391 31.8932374 50.926585 32.0364753 50.2132923 32.731763 50.3816778 33.7135256 "/><polygon d="M56.5,32.25 L55.6183222,32.7135255 L55.7867076,31.7317628 L55.0734152,31.0364745 L56.0591612,30.8932372 L56.5,30 L56.9408391,30.8932374 L57.926585,31.0364753 L57.2132923,31.731763 L57.3816778,32.7135256 L56.5,32.25 Z M56.5,32.25" id="Star-39-copy-7" points="56.5 32.25 55.6183222 32.7135255 55.7867076 31.7317628 55.0734152 31.0364745 56.0591612 30.8932372 56.5 30 56.9408391 30.8932374 57.926585 31.0364753 57.2132923 31.731763 57.3816778 32.7135256 " transform="translate(56.500000, 31.500000) scale(-1, 1) translate(-56.500000, -31.500000) "/><polygon d="M49.5,41.25 L48.6183222,41.7135255 L48.7867076,40.7317628 L48.0734152,40.0364745 L49.0591612,39.8932372 L49.5,39 L49.9408391,39.8932374 L50.926585,40.0364753 L50.2132923,40.731763 L50.3816778,41.7135256 L49.5,41.25 Z M49.5,41.25" id="Star-39-copy-8" points="49.5 41.25 48.6183222 41.7135255 48.7867076 40.7317628 48.0734152 40.0364745 49.0591612 39.8932372 49.5 39 49.9408391 39.8932374 50.926585 40.0364753 50.2132923 40.731763 50.3816778 41.7135256 " transform="translate(49.500000, 40.500000) scale(-1, 1) translate(-49.500000, -40.500000) "/><polygon d="M49.5,37.25 L48.6183222,37.7135255 L48.7867076,36.7317628 L48.0734152,36.0364745 L49.0591612,35.8932372 L49.5,35 L49.9408391,35.8932374 L50.926585,36.0364753 L50.2132923,36.731763 L50.3816778,37.7135256 L49.5,37.25 Z M49.5,37.25" id="Star-39-copy-9" points="49.5 37.25 48.6183222 37.7135255 48.7867076 36.7317628 48.0734152 36.0364745 49.0591612 35.8932372 49.5 35 49.9408391 35.8932374 50.926585 36.0364753 50.2132923 36.731763 50.3816778 37.7135256 " transform="translate(49.500000, 36.500000) scale(-1, 1) translate(-49.500000, -36.500000) "/><polygon d="M58.5,29.25 L57.6183222,29.7135255 L57.7867076,28.7317628 L57.0734152,28.0364745 L58.0591612,27.8932372 L58.5,27 L58.9408391,27.8932374 L59.926585,28.0364753 L59.2132923,28.731763 L59.3816778,29.7135256 L58.5,29.25 Z M58.5,29.25" id="Star-39-copy-8" points="58.5 29.25 57.6183222 29.7135255 57.7867076 28.7317628 57.0734152 28.0364745 58.0591612 27.8932372 58.5 27 58.9408391 27.8932374 59.926585 28.0364753 59.2132923 28.731763 59.3816778 29.7135256 "/><polygon d="M2.49999997,7.25 L1.61832219,7.71352554 L1.78670762,6.73176277 L1.07341521,6.03647454 L2.0591612,5.89323715 L2.50000002,5 L2.9408391,5.89323737 L3.92658502,6.03647526 L3.21329232,6.73176296 L3.38167778,7.71352556 L2.49999997,7.25 Z M2.49999997,7.25" id="Star-39-copy-2" points="2.49999997 7.25 1.61832219 7.71352554 1.78670762 6.73176277 1.07341521 6.03647454 2.0591612 5.89323715 2.50000002 5 2.9408391 5.89323737 3.92658502 6.03647526 3.21329232 6.73176296 3.38167778 7.71352556 "/><polygon d="M12,16.5 L11.4122148,16.809017 L11.5244717,16.1545085 L11.0489435,15.690983 L11.7061075,15.5954914 L12,15 L12.2938927,15.5954916 L12.9510567,15.6909835 L12.4755282,16.1545086 L12.5877852,16.809017 L12,16.5 Z M12,16.5" id="Star-39-copy-3" points="12 16.5 11.4122148 16.809017 11.5244717 16.1545085 11.0489435 15.690983 11.7061075 15.5954914 12 15 12.2938927 15.5954916 12.9510567 15.6909835 12.4755282 16.1545086 12.5877852 16.809017 "/><polygon d="M6.49999997,22.25 L5.61832219,22.7135255 L5.78670762,21.7317628 L5.07341521,21.0364745 L6.0591612,20.8932372 L6.50000002,20 L6.9408391,20.8932374 L7.92658502,21.0364753 L7.21329232,21.731763 L7.38167778,22.7135256 L6.49999997,22.25 Z M6.49999997,22.25" id="Star-39-copy-4" points="6.49999997 22.25 5.61832219 22.7135255 5.78670762 21.7317628 5.07341521 21.0364745 6.0591612 20.8932372 6.50000002 20 6.9408391 20.8932374 7.92658502 21.0364753 7.21329232 21.731763 7.38167778 22.7135256 "/><polygon d="M12.5,29.25 L11.6183222,29.7135255 L11.7867076,28.7317628 L11.0734152,28.0364745 L12.0591612,27.8932372 L12.5,27 L12.9408391,27.8932374 L13.926585,28.0364753 L13.2132923,28.731763 L13.3816778,29.7135256 L12.5,29.25 Z M12.5,29.25" id="Star-39-copy-5" points="12.5 29.25 11.6183222 29.7135255 11.7867076 28.7317628 11.0734152 28.0364745 12.0591612 27.8932372 12.5 27 12.9408391 27.8932374 13.926585 28.0364753 13.2132923 28.731763 13.3816778 29.7135256 "/><polygon d="M1.49999997,25.25 L0.618322192,25.7135255 L0.786707622,24.7317628 L0.0734152149,24.0364745 L1.0591612,23.8932372 L1.50000002,23 L1.9408391,23.8932374 L2.92658502,24.0364753 L2.21329232,24.731763 L2.38167778,25.7135256 L1.49999997,25.25 Z M1.49999997,25.25" id="Star-39-copy-5" points="1.49999997 25.25 0.618322192 25.7135255 0.786707622 24.7317628 0.0734152149 24.0364745 1.0591612 23.8932372 1.50000002 23 1.9408391 23.8932374 2.92658502 24.0364753 2.21329232 24.731763 2.38167778 25.7135256 "/><polygon d="M19.5,12.25 L18.6183222,12.7135255 L18.7867076,11.7317628 L18.0734152,11.0364745 L19.0591612,10.8932372 L19.5,10 L19.9408391,10.8932374 L20.926585,11.0364753 L20.2132923,11.731763 L20.3816778,12.7135256 L19.5,12.25 Z M19.5,12.25" id="Star-39-copy-6" points="19.5 12.25 18.6183222 12.7135255 18.7867076 11.7317628 18.0734152 11.0364745 19.0591612 10.8932372 19.5 10 19.9408391 10.8932374 20.926585 11.0364753 20.2132923 11.731763 20.3816778 12.7135256 "/><polygon d="M17,31.5 L16.4122148,31.809017 L16.5244717,31.1545085 L16.0489435,30.690983 L16.7061075,30.5954914 L17,30 L17.2938927,30.5954916 L17.9510567,30.6909835 L17.4755282,31.1545086 L17.5877852,31.809017 L17,31.5 Z M17,31.5" id="Star-39-copy-6" points="17 31.5 16.4122148 31.809017 16.5244717 31.1545085 16.0489435 30.690983 16.7061075 30.5954914 17 30 17.2938927 30.5954916 17.9510567 30.6909835 17.4755282 31.1545086 17.5877852 31.809017 "/><polygon d="M27,21.5 L26.4122148,21.809017 L26.5244717,21.1545085 L26.0489435,20.690983 L26.7061075,20.5954914 L27,20 L27.2938927,20.5954916 L27.9510567,20.6909835 L27.4755282,21.1545086 L27.5877852,21.809017 L27,21.5 Z M27,21.5" id="Star-39-copy-7" points="27 21.5 26.4122148 21.809017 26.5244717 21.1545085 26.0489435 20.690983 26.7061075 20.5954914 27 20 27.2938927 20.5954916 27.9510567 20.6909835 27.4755282 21.1545086 27.5877852 21.809017 "/><polygon d="M31,24.5 L30.4122148,24.809017 L30.5244717,24.1545085 L30.0489435,23.690983 L30.7061075,23.5954914 L31,23 L31.2938927,23.5954916 L31.9510567,23.6909835 L31.4755282,24.1545086 L31.5877852,24.809017 L31,24.5 Z M31,24.5" id="Star-39-copy-8" points="31 24.5 30.4122148 24.809017 30.5244717 24.1545085 30.0489435 23.690983 30.7061075 23.5954914 31 23 31.2938927 23.5954916 31.9510567 23.6909835 31.4755282 24.1545086 31.5877852 24.809017 "/><polygon d="M39,32.5 L38.4122148,32.809017 L38.5244717,32.1545085 L38.0489435,31.690983 L38.7061075,31.5954914 L39,31 L39.2938927,31.5954916 L39.9510567,31.6909835 L39.4755282,32.1545086 L39.5877852,32.809017 L39,32.5 Z M39,32.5" id="Star-39-copy-9" points="39 32.5 38.4122148 32.809017 38.5244717 32.1545085 38.0489435 31.690983 38.7061075 31.5954914 39 31 39.2938927 31.5954916 39.9510567 31.6909835 39.4755282 32.1545086 39.5877852 32.809017 "/><polygon d="M44,34.5 L43.4122148,34.809017 L43.5244717,34.1545085 L43.0489435,33.690983 L43.7061075,33.5954914 L44,33 L44.2938927,33.5954916 L44.9510567,33.6909835 L44.4755282,34.1545086 L44.5877852,34.809017 L44,34.5 Z M44,34.5" id="Star-39-copy-10" points="44 34.5 43.4122148 34.809017 43.5244717 34.1545085 43.0489435 33.690983 43.7061075 33.5954914 44 33 44.2938927 33.5954916 44.9510567 33.6909835 44.4755282 34.1545086 44.5877852 34.809017 "/><polygon d="M41,38.5 L40.4122148,38.809017 L40.5244717,38.1545085 L40.0489435,37.690983 L40.7061075,37.5954914 L41,37 L41.2938927,37.5954916 L41.9510567,37.6909835 L41.4755282,38.1545086 L41.5877852,38.809017 L41,38.5 Z M41,38.5" id="Star-39-copy-11" points="41 38.5 40.4122148 38.809017 40.5244717 38.1545085 40.0489435 37.690983 40.7061075 37.5954914 41 37 41.2938927 37.5954916 41.9510567 37.6909835 41.4755282 38.1545086 41.5877852 38.809017 "/></g><g id="text" transform="translate(54.000000, 55.000000)"><g id="Clipped"><use id="Oval" xlink:href="#path-1"/><use id="Oval-copy" mask="url(#mask-2)" xlink:href="#path-3"/><path d="M15,20.0000013 C61.9442032,20.0000013 99.9999993,58.0557968 100,105 L95,105 C95,60.81722 59.18278,25 15,25 C-29.18278,25 -65,60.81722 -65,105 L-70,105 C-69.9999993,58.0557968 -31.9442032,20.0000013 15,20.0000013 Z M15,20.0000013" fill="#FFFFFF" id="Shape" mask="url(#mask-4)"/></g><g id="Group" transform="translate(2.190476, 19.761905)"><g fill="#009B3A" id="O" transform="translate(3.215086, 3.251450) rotate(-7.000000) translate(-3.215086, -3.251450) translate(1.215086, 0.751450)"><path d="M2.30572414,4.69324065 C3.13415126,4.69324065 3.80572414,3.79781015 3.80572414,2.69324065 C3.80572414,1.58867115 3.13415126,0.693240651 2.30572414,0.693240651 C1.47729701,0.693240651 0.80572414,1.58867115 0.80572414,2.69324065 C0.80572414,3.79781015 1.47729701,4.69324065 2.30572414,4.69324065 M2.30572414,3.95038351 C2.7922607,3.95038351 3.18667652,3.38754148 3.18667652,2.69324065 C3.18667652,1.99893982 2.7922607,1.43609779 2.30572414,1.43609779 C1.81918757,1.43609779 1.42477176,1.99893982 1.42477176,2.69324065 C1.42477176,3.38754148 1.81918757,3.95038351 2.30572414,3.95038351"/></g><g fill="#009B3A" id="R" transform="translate(8.088994, 3.772025) rotate(-4.000000) translate(-8.088994, -3.772025) translate(5.588994, 0.272025)"><g transform="translate(0.000000, 0.000000)"><path d="M0.866666667,5 L1.48571429,5 L1.48571429,3.51428571 L2.81904762,3.51428571 C3.39763164,3.51428571 3.86666667,2.95144369 3.86666667,2.25714286 C3.86666667,1.56284203 3.39763164,1 2.81904762,1 L0.914285714,1 L0.914285714,1 L0.866666667,5 L0.866666667,5 Z M1.48571429,2.77142857 L2.77142857,2.77142857 C3.00812204,2.77142857 3.2,2.54117501 3.2,2.25714286 C3.2,1.9731107 3.00812204,1.74285714 2.77142857,1.74285714 L1.48571429,1.74285714 L1.48571429,1.74285714 L1.48571429,2.77142857 L1.48571429,2.77142857 Z M1.48571429,2.77142857" id="P"/><path d="M3.47528674,5.0677874 C3.47528674,4.4427874 3.47528674,3.0677874 3.03411027,3.0677874 L2.47528674,3.0677874 C3.12234556,3.0677874 3.12234556,4.4427874 3.12234556,5.0677874" id="Shape" transform="translate(2.975287, 4.067787) rotate(-7.000000) translate(-2.975287, -4.067787) "/></g></g><g fill="#009B3A" id="D" transform="translate(12.850805, 3.028020) rotate(-1.000000) translate(-12.850805, -3.028020) translate(10.850805, 1.028020)"><path d="M0.0238095238,3.38095238 L1.5952381,3.38095238 C2.38421631,3.38095238 3.02380952,2.74135917 3.02380952,1.95238095 L3.02380952,1.47619048 C3.02380952,1.09730978 2.87329975,0.733947044 2.60539064,0.466037932 C2.33748153,0.19812882 1.9741188,0.0476190476 1.5952381,0.0476190476 L0.0238095238,0.0476190476 L0.0238095238,0.0476190476 L0.0238095238,3.38095238 L0.0238095238,3.38095238 Z M0.642857143,2.76190476 L1.54761905,2.76190476 C2.04730525,2.76190476 2.45238095,2.35682906 2.45238095,1.85714286 L2.45238095,1.57142857 C2.45238095,1.07174237 2.04730525,0.666666667 1.54761905,0.666666667 L0.642857143,0.666666667 L0.642857143,0.666666667 L0.642857143,2.76190476 L0.642857143,2.76190476 Z M0.642857143,2.76190476"/></g><g fill="#009B3A" id="E" transform="translate(16.688732, 2.788352) rotate(2.000000) translate(-16.688732, -2.788352) translate(15.164923, 1.121685)"><path d="M0.0238095238,3.33333333 L3.02380952,3.33333333 L3.02380952,2.71428571 L0.595238095,2.71428571 L0.595238095,1.85714286 L2.5,1.85714286 L2.5,1.28571429 L0.595238095,1.28571429 L0.595238095,0.619047619 L2.88095238,0.619047619 L2.88095238,0 L0.0238095238,0 L0.0238095238,0 L0.0238095238,3.33333333 L0.0238095238,3.33333333 Z M0.0238095238,3.33333333"/></g><g fill="#009B3A" id="M" transform="translate(20.999873, 3.052033) rotate(5.000000) translate(-20.999873, -3.052033) translate(19.476063, 1.385366)"><path d="M0.0238095238,3.33333333 L0.595238095,3.33333333 L0.595238095,1.04761905 L1.26190476,3.33333333 L1.78571429,3.33333333 L2.45238095,1.04761905 L2.45238095,3.33333333 L3.02380952,3.33333333 L3.02380952,0 L2.19047619,0 L1.52380952,2.28571429 L0.857142857,0 L0.0238095238,0 L0.0238095238,0 L0.0238095238,3.33333333 L0.0238095238,3.33333333 Z M0.0238095238,3.33333333"/></g><g fill="#009B3A" id="e" transform="translate(27.752633, 4.093980) rotate(9.750000) translate(-27.752633, -4.093980) translate(26.466919, 2.593980)"><path d="M0.0357142857,3 L2.53571429,3 L2.53571429,2.42857143 L0.607142857,2.42857143 L0.607142857,1.66666667 L2.17857143,1.66666667 L2.17857143,1.0952381 L0.607142857,1.0952381 L0.607142857,0.571428571 L2.47619048,0.571428571 L2.47619048,0 L0.0357142857,0 L0.0357142857,0 L0.0357142857,3 L0.0357142857,3 Z M0.0357142857,3"/></g><g fill="#009B3A" id="P" transform="translate(34.465874, 5.365915) rotate(14.500000) translate(-34.465874, -5.365915) translate(32.942065, 3.699248)"><path d="M0.0238095238,3.33333333 L0.642857143,3.33333333 L0.642857143,2.0952381 L1.97619048,2.0952381 C2.5547745,2.0952381 3.02380952,1.62620307 3.02380952,1.04761905 C3.02380952,0.469035024 2.5547745,0 1.97619048,0 L0.0714285714,0 L0.0714285714,0 L0.0238095238,3.33333333 L0.0238095238,3.33333333 Z M0.642857143,1.47619048 L1.92857143,1.47619048 C2.16526489,1.47619048 2.35714286,1.28431251 2.35714286,1.04761905 C2.35714286,0.810925583 2.16526489,0.619047619 1.92857143,0.619047619 L0.642857143,0.619047619 L0.642857143,0.619047619 L0.642857143,1.47619048 L0.642857143,1.47619048 Z M0.642857143,1.47619048"/></g><g fill="#009B3A" id="R" transform="translate(38.617752, 6.556447) rotate(17.500000) translate(-38.617752, -6.556447) translate(37.093943, 4.889780)"><g><path d="M0.0238095238,3.33333333 L0.642857143,3.33333333 L0.642857143,2.0952381 L1.97619048,2.0952381 C2.5547745,2.0952381 3.02380952,1.62620307 3.02380952,1.04761905 C3.02380952,0.469035024 2.5547745,0 1.97619048,0 L0.0714285714,0 L0.0714285714,0 L0.0238095238,3.33333333 L0.0238095238,3.33333333 Z M0.642857143,1.47619048 L1.92857143,1.47619048 C2.16526489,1.47619048 2.35714286,1.28431251 2.35714286,1.04761905 C2.35714286,0.810925583 2.16526489,0.619047619 1.92857143,0.619047619 L0.642857143,0.619047619 L0.642857143,0.619047619 L0.642857143,1.47619048 L0.642857143,1.47619048 Z M0.642857143,1.47619048" id="P"/><path d="M2.85714286,3.33333333 C2.85714286,2.85714286 2.85714286,1.80952381 2.14285714,1.80952381 L1.23809524,1.80952381 C2.28571429,1.80952381 2.28571429,2.85714286 2.28571429,3.33333333" id="Shape"/></g></g><g fill="#009B3A" id="O" transform="translate(42.701633, 7.962640) rotate(20.500000) translate(-42.701633, -7.962640) translate(41.177823, 6.295973)"><path d="M1.52380952,3.33333333 C2.35223665,3.33333333 3.02380952,2.58714125 3.02380952,1.66666667 C3.02380952,0.746192084 2.35223665,0 1.52380952,0 C0.695382399,0 0.0238095238,0.746192084 0.0238095238,1.66666667 C0.0238095238,2.58714125 0.695382399,3.33333333 1.52380952,3.33333333 M1.52380952,2.71428571 C2.01034609,2.71428571 2.4047619,2.24525069 2.4047619,1.66666667 C2.4047619,1.08808264 2.01034609,0.619047619 1.52380952,0.619047619 C1.03727296,0.619047619 0.642857143,1.08808264 0.642857143,1.66666667 C0.642857143,2.24525069 1.03727296,2.71428571 1.52380952,2.71428571"/></g><g id="G" transform="translate(46.706322, 9.580639) rotate(23.500000) translate(-46.706322, -9.580639) translate(45.182512, 7.913972)"><g><g id="Clipped"><use id="Shape" xlink:href="#path-5"/><path d="M1.52380952,3.33333333 C2.35223665,3.33333333 3.02380952,2.58714125 3.02380952,1.66666667 C3.02380952,0.746192084 2.35223665,0 1.52380952,0 C0.695382399,0 0.0238095238,0.746192084 0.0238095238,1.66666667 C0.0238095238,2.58714125 0.695382399,3.33333333 1.52380952,3.33333333 M1.52380952,2.71428571 C2.01034609,2.71428571 2.4047619,2.24525069 2.4047619,1.66666667 C2.4047619,1.08808264 2.01034609,0.619047619 1.52380952,0.619047619 C1.03727296,0.619047619 0.642857143,1.08808264 0.642857143,1.66666667 C0.642857143,2.24525069 1.03727296,2.71428571 1.52380952,2.71428571" fill="#009B3A" id="O" mask="url(#mask-6)"/></g><rect fill="#009B3A" height="0.476190476" id="Rectangle" width="1.26190476" x="1.76190476" y="1.66666667"/><rect fill="#009B3A" height="1.66666667" id="Rectangle" width="0.476190476" x="2.54761905" y="1.66666667"/></g></g><g fill="#009B3A" id="R" transform="translate(50.620843, 11.406010) rotate(26.500000) translate(-50.620843, -11.406010) translate(49.097034, 9.739344)"><g><path d="M0.0238095238,3.33333333 L0.642857143,3.33333333 L0.642857143,2.0952381 L1.97619048,2.0952381 C2.5547745,2.0952381 3.02380952,1.62620307 3.02380952,1.04761905 C3.02380952,0.469035024 2.5547745,0 1.97619048,0 L0.0714285714,0 L0.0714285714,0 L0.0238095238,3.33333333 L0.0238095238,3.33333333 Z M0.642857143,1.47619048 L1.92857143,1.47619048 C2.16526489,1.47619048 2.35714286,1.28431251 2.35714286,1.04761905 C2.35714286,0.810925583 2.16526489,0.619047619 1.92857143,0.619047619 L0.642857143,0.619047619 L0.642857143,0.619047619 L0.642857143,1.47619048 L0.642857143,1.47619048 Z M0.642857143,1.47619048" id="P"/><path d="M2.85714286,3.33333333 C2.85714286,2.85714286 2.85714286,1.80952381 2.14285714,1.80952381 L1.23809524,1.80952381 C2.28571429,1.80952381 2.28571429,2.85714286 2.28571429,3.33333333" id="Shape"/></g></g><g fill="#009B3A" id="E" transform="translate(54.434468, 13.433750) rotate(29.500000) translate(-54.434468, -13.433750) translate(52.910658, 11.767084)"><path d="M0.0238095238,3.33333333 L3.02380952,3.33333333 L3.02380952,2.71428571 L0.595238095,2.71428571 L0.595238095,1.85714286 L2.5,1.85714286 L2.5,1.28571429 L0.595238095,1.28571429 L0.595238095,0.619047619 L2.88095238,0.619047619 L2.88095238,0 L0.0238095238,0 L0.0238095238,0 L0.0238095238,3.33333333 L0.0238095238,3.33333333 Z M0.0238095238,3.33333333"/></g><g fill="#009B3A" id="S" transform="translate(58.149534, 15.638220) rotate(32.500000) translate(-58.149534, -15.638220) translate(56.625725, 13.947744)"><path d="M0.773809524,2.33333333 C0.773809524,2.66666667 1.0952381,2.83333333 1.57142857,2.83333333 C2.04761905,2.83333333 2.27333333,2.67857143 2.27380952,2.46428571 C2.27380952,1.78571429 0.0476190476,2.21428571 0.0595238095,1.02380952 C0.0714285714,-1.36002321e-15 1.23809524,0.0476190476 1.66666667,0.0476190476 C2.0952381,0.0476190476 2.9047619,0.238095238 2.89285714,1.05952381 L2.16666667,1.05952381 C2.16666667,0.702380952 1.83333333,0.571428571 1.45238095,0.571428571 C1.08333333,0.571428571 0.821428571,0.630952381 0.821428571,0.976190476 C0.80952381,1.53571429 3.02380952,1.16666667 3.02380952,2.3452381 C3.02380952,3.21428571 2.16666667,3.38095238 1.52380952,3.38095238 C0.976190476,3.38095238 0.0214285714,3.16666667 0.0238095238,2.33333333 C0.0238095238,2.33333333 0.0214285714,3.16666667 0.0238095238,2.33333333 L0.773809524,2.33333333 L0.773809524,2.33333333 Z M0.773809524,2.33333333"/></g><g fill="#009B3A" id="S" transform="translate(61.731344, 18.054181) rotate(35.500000) translate(-61.731344, -18.054181) translate(60.207534, 16.363705)"><path d="M0.773809524,2.33333333 C0.773809524,2.66666667 1.0952381,2.83333333 1.57142857,2.83333333 C2.04761905,2.83333333 2.27333333,2.67857143 2.27380952,2.46428571 C2.27380952,1.78571429 0.0476190476,2.21428571 0.0595238095,1.02380952 C0.0714285714,-1.36002321e-15 1.23809524,0.0476190476 1.66666667,0.0476190476 C2.0952381,0.0476190476 2.9047619,0.238095238 2.89285714,1.05952381 L2.16666667,1.05952381 C2.16666667,0.702380952 1.83333333,0.571428571 1.45238095,0.571428571 C1.08333333,0.571428571 0.821428571,0.630952381 0.821428571,0.976190476 C0.80952381,1.53571429 3.02380952,1.16666667 3.02380952,2.3452381 C3.02380952,3.21428571 2.16666667,3.38095238 1.52380952,3.38095238 C0.976190476,3.38095238 0.0214285714,3.16666667 0.0238095238,2.33333333 C0.0238095238,2.33333333 0.0214285714,3.16666667 0.0238095238,2.33333333 L0.773809524,2.33333333 L0.773809524,2.33333333 Z M0.773809524,2.33333333"/></g><g fill="#009B3A" id="O" transform="translate(65.337004, 21.228765) rotate(38.500000) translate(-65.337004, -21.228765) translate(63.337004, 19.228765)"><path d="M1.52091881,3.33750152 C2.34934594,3.33750152 3.02091881,2.59130944 3.02091881,1.67083485 C3.02091881,0.750360269 2.34934594,0.00416818541 1.52091881,0.00416818541 C0.692491686,0.00416818541 0.0209188105,0.750360269 0.0209188105,1.67083485 C0.0209188105,2.59130944 0.692491686,3.33750152 1.52091881,3.33750152 M1.52091881,2.7184539 C2.00745538,2.7184539 2.40187119,2.24941888 2.40187119,1.67083485 C2.40187119,1.09225083 2.00745538,0.623215804 1.52091881,0.623215804 C1.03438225,0.623215804 0.63996643,1.09225083 0.63996643,1.67083485 C0.63996643,2.24941888 1.03438225,2.7184539 1.52091881,2.7184539"/></g></g></g></g><g id="St.Kitts-and-Nevis" transform="translate(0.000000, 162.000000)"><path d="M212.878829,158.000001 C200.523738,192.955772 167.186567,218 128,218 C88.8134331,218 55.4762623,192.955772 43.1211708,158 L212.878833,158 Z M217.999969,128.07551 C217.99999,128.050342 218,128.025172 218,128 C218,127.974825 217.99999,127.949653 217.999969,127.924483 L217.999969,128.07551 Z M38.0054925,126.995277 C38.001834,127.32975 38,127.664661 38,128 C38,128.335339 38.001834,128.67025 38.0054925,129.004723 L38.0054928,126.995251 Z M38.0054925,126.995277" fill="#CA4638" id="Oval-15-copy-2" transform="translate(128.000000, 128.000000) rotate(-45.000000) translate(-128.000000, -128.000000) "/><path d="M212.85805,157.979221 C200.502958,192.934993 167.165788,217.979221 127.979221,217.979221 C88.7926537,217.979221 55.4554829,192.934993 43.1003914,157.979221 L212.858054,157.979221 Z M217.97919,128.054731 C217.97921,128.029563 217.979221,128.004393 217.979221,127.979221 C217.979221,127.954046 217.97921,127.928874 217.97919,127.903704 L217.97919,128.054731 Z M37.9847132,126.974498 C37.9810546,127.308971 37.9792206,127.643881 37.9792206,127.979221 C37.9792206,128.31456 37.9810546,128.649471 37.9847132,128.983944 L37.9847134,126.974472 Z M37.9847132,126.974498" fill="#479951" id="Oval-15-copy-3" transform="translate(127.979221, 127.979221) scale(-1, -1) rotate(-45.000000) translate(-127.979221, -127.979221) "/></g></g></g></svg>