<?xml version="1.0" ?><svg height="182px" version="1.1" viewBox="0 0 182 182" width="182px" xmlns="http://www.w3.org/2000/svg" xmlns:sketch="http://www.bohemiancoding.com/sketch/ns" xmlns:xlink="http://www.w3.org/1999/xlink"><title/><description/><defs/><g fill="none" fill-rule="evenodd" id="Ameria" stroke="none" stroke-width="1"><g id="Group" transform="translate(-237.000000, 1.000000)"><g id="St.Kitts-and-Nevis" transform="translate(0.000000, 162.000000)"><path d="M212.878829,158.000001 C200.523738,192.955772 167.186567,218 128,218 C88.8134331,218 55.4762623,192.955772 43.1211708,158 L212.878833,158 Z M217.999969,128.07551 C217.99999,128.050342 218,128.025172 218,128 C218,127.974825 217.99999,127.949653 217.999969,127.924483 L217.999969,128.07551 Z M38.0054925,126.995277 C38.001834,127.32975 38,127.664661 38,128 C38,128.335339 38.001834,128.67025 38.0054925,129.004723 L38.0054928,126.995251 Z M38.0054925,126.995277" fill="#CA4638" id="Oval-15-copy-2" transform="translate(128.000000, 128.000000) rotate(-45.000000) translate(-128.000000, -128.000000) "/><path d="M212.85805,157.979221 C200.502958,192.934993 167.165788,217.979221 127.979221,217.979221 C88.7926537,217.979221 55.4554829,192.934993 43.1003914,157.979221 L212.858054,157.979221 Z M217.97919,128.054731 C217.97921,128.029563 217.979221,128.004393 217.979221,127.979221 C217.979221,127.954046 217.97921,127.928874 217.97919,127.903704 L217.97919,128.054731 Z M37.9847132,126.974498 C37.9810546,127.308971 37.9792206,127.643881 37.9792206,127.979221 C37.9792206,128.31456 37.9810546,128.649471 37.9847132,128.983944 L37.9847134,126.974472 Z M37.9847132,126.974498" fill="#479951" id="Oval-15-copy-3" transform="translate(127.979221, 127.979221) scale(-1, -1) rotate(-45.000000) translate(-127.979221, -127.979221) "/></g><g id="CA" transform="translate(238.000000, 0.000000)"><path d="M150,157.083197 C134.077306,171.334394 113.050634,180 90,180 C66.9493662,180 45.9226944,171.334394 30,157.083197 L30,22.916803 C45.9226944,8.66560617 66.9493662,0 90,0 C113.050634,0 134.077306,8.66560617 150,22.916803 L150,157.083197 Z M150,157.083197" fill="#FFFFFF" id="Oval-1-copy-3"/><path d="M150,157.083197 C168.412481,140.603581 180,116.654996 180,90 C180,63.3450038 168.412481,39.3964193 150,22.916803 L150,157.083197 Z M30,22.916803 C11.5875189,39.3964193 0,63.3450038 0,90 C0,116.654996 11.5875189,140.603581 30,157.083197 L30,22.916803 Z M30,22.916803" fill="#CA4638" id="Oval-1-copy-4"/><path d="M89.9985383,50.0625 L83.5397876,62.1088882 C82.8069048,63.4181301 81.4938005,63.2966955 80.1806943,62.5654429 L75.5047309,60.1441384 L78.989799,78.6471379 C79.7226818,82.0275312 77.371266,82.0275312 76.2108306,80.5659081 L68.0503651,71.4303874 L66.7255279,76.069622 C66.572751,76.6788531 65.9010172,77.3187373 64.8932583,77.1663562 L54.5742565,74.9967628 L57.2846086,84.8505688 C57.8648225,87.043151 58.317403,87.9509551 56.6988586,88.5292378 L53.0208333,90.2578985 L70.7843271,104.686685 C71.4874165,105.232251 71.8426455,106.214037 71.5923412,107.102976 L70.037657,112.204955 C76.1538905,111.499932 81.6341306,110.439243 87.7534615,109.785996 C88.2936731,109.728327 89.1980522,110.619835 89.1943431,111.245866 L88.383951,129.9375 L91.3576942,129.9375 L90.8895921,111.285951 C90.8858623,110.659921 91.7063231,109.728327 92.2465347,109.785996 C98.3658656,110.439245 103.846113,111.499932 109.962345,112.204955 L108.407664,107.102976 C108.15736,106.214037 108.512587,105.232251 109.215677,104.686685 L126.979167,90.2578985 L123.301145,88.5292378 C121.682597,87.9509551 122.135177,87.043151 122.715391,84.8505688 L125.425749,74.9967628 L115.106742,77.1663562 C114.098983,77.3187373 113.427249,76.6788531 113.274468,76.069622 L111.949633,71.4303874 L103.789171,80.5659081 C102.628732,82.0275312 100.277314,82.0275312 101.010197,78.6471379 L104.49526,60.1441384 L99.8193057,62.5654429 C98.5061673,63.2966955 97.1930952,63.4181301 96.4602105,62.1088882" fill="#CA4638" id="Shape"/></g></g></g></svg>