<?xml version="1.0" encoding="iso-8859-1"?>
<!-- Generator: Adobe Illustrator 13.0.2, SVG Export Plug-In . SVG Version: 6.00 Build 14948)  -->
<!DOCTYPE svg PUBLIC "-//W3C//DTD SVG 1.1//EN" "http://www.w3.org/Graphics/SVG/1.1/DTD/svg11.dtd">
<svg version="1.1" id="Layer_1" xmlns:sketch="http://www.bohemiancoding.com/sketch/ns"
	 xmlns="http://www.w3.org/2000/svg" xmlns:xlink="http://www.w3.org/1999/xlink" x="0px" y="0px" width="182px" height="182px"
	 viewBox="0 0 182 182" enable-background="new 0 0 182 182" xml:space="preserve">
<title></title>
<description></description>
<g id="Asia-Pacific">
	<g id="CN" transform="translate(-799.000000, -199.000000)">
		<g transform="translate(800.000000, 200.000000)">
			<ellipse id="Oval-15-copy" fill="#CA0A0A" fill-opacity="0.9" cx="89.976" cy="90.1" rx="89.812" ry="89.784"/>
			<g id="star" transform="translate(29.891697, 17.870036)">
				<polygon id="Star-1" fill="#FFF54E" points="30.157,51.411 11.662,60.758 15.194,40.962 0.231,26.941 20.91,24.053 
					30.157,6.041 39.405,24.053 60.084,26.941 45.121,40.962 48.653,60.758 				"/>
				<polygon id="Star-1-copy" fill="#FFF54E" points="60.831,9.834 56.937,11.802 57.681,7.633 54.53,4.681 58.884,4.073 
					60.831,0.281 62.778,4.073 67.133,4.681 63.981,7.633 64.725,11.802 				"/>
				<polygon id="Star-1-copy-2" fill="#FFF54E" points="77.461,23.199 73.566,25.167 74.309,20.999 71.159,18.047 75.514,17.439 
					77.461,13.646 79.407,17.439 83.763,18.047 80.611,20.999 81.354,25.167 				"/>
				<polygon id="Star-1-copy-3" fill="#FFF54E" points="79.393,43.277 75.499,45.246 76.243,41.077 73.093,38.125 77.446,37.517 
					79.393,33.725 81.341,37.517 85.694,38.125 82.544,41.077 83.288,45.246 				"/>
				<polygon id="Star-1-copy-4" fill="#FFF54E" points="63.884,60.739 59.989,62.708 60.733,58.539 57.582,55.587 61.936,54.979 
					63.884,51.187 65.831,54.979 70.184,55.587 67.034,58.539 67.778,62.708 				"/>
			</g>
		</g>
	</g>
</g>
</svg>
