<?xml version="1.0" ?><svg height="182px" version="1.1" viewBox="0 0 182 182" width="182px" xmlns="http://www.w3.org/2000/svg" xmlns:sketch="http://www.bohemiancoding.com/sketch/ns" xmlns:xlink="http://www.w3.org/1999/xlink"><title/><description/><defs/><g fill="none" fill-rule="evenodd" id="Asia-Pacific" stroke="none" stroke-width="1"><g id="JP" transform="translate(-599.000000, -399.000000)"><g transform="translate(600.000000, 400.000000)"><circle cx="90" cy="90" d="M90,180 C139.70563,180 180,139.70563 180,90 C180,40.2943701 139.70563,0 90,0 C40.2943701,0 0,40.2943701 0,90 C0,139.70563 40.2943701,180 90,180 Z M90,180" fill="#FFFFFF" id="1024-copy" r="90" transform="translate(90.000000, 90.000000) scale(1, -1) translate(-90.000000, -90.000000) "/><circle cx="90" cy="90" d="M90,135 C114.852815,135 135,114.852815 135,90 C135,65.147185 114.852815,45 90,45 C65.147185,45 45,65.147185 45,90 C45,114.852815 65.147185,135 90,135 Z M90,135" fill="#CA4638" id="Oval-127" r="45"/></g></g></g></svg>