<?xml version="1.0" encoding="iso-8859-1"?>
<!-- Generator: Adobe Illustrator 13.0.2, SVG Export Plug-In . SVG Version: 6.00 Build 14948)  -->
<!DOCTYPE svg PUBLIC "-//W3C//DTD SVG 1.1//EN" "http://www.w3.org/Graphics/SVG/1.1/DTD/svg11.dtd">
<svg version="1.1" id="Layer_1" xmlns:sketch="http://www.bohemiancoding.com/sketch/ns"
	 xmlns="http://www.w3.org/2000/svg" xmlns:xlink="http://www.w3.org/1999/xlink" x="0px" y="0px" width="182px" height="182px"
	 viewBox="0 0 182 182" enable-background="new 0 0 182 182" xml:space="preserve">
<title></title>
<description></description>
<g id="Page-1">
	<g id="UK" transform="translate(1.000000, 1.000000)">
		<circle id="Oval-1-copy-9" fill="#3462A6" cx="90" cy="90" r="90"/>
		<path id="Oval-1-copy-6" fill="#FFFFFF" d="M163.361,37.852c-2.916-4.095-6.166-7.935-9.711-11.481l-0.021-0.021
			c-3.546-3.545-7.387-6.795-11.48-9.711l-125.51,125.51c2.916,4.094,6.166,7.935,9.711,11.48l0.021,0.021
			c3.546,3.545,7.386,6.795,11.481,9.711L163.361,37.852z"/>
		<path id="Oval-1-copy-5" fill="#FFFFFF" d="M142.148,163.361c4.094-2.916,7.935-6.166,11.48-9.711l0.021-0.021
			c3.545-3.546,6.795-7.387,9.711-11.48L37.852,16.639c-4.095,2.916-7.935,6.166-11.481,9.711l-0.021,0.021
			c-3.545,3.546-6.795,7.386-9.711,11.481L142.148,163.361z"/>
		<path id="Oval-1-copy-9_1_" fill="#CA2826" d="M160.287,146.217c-2.09,2.608-4.32,5.099-6.684,7.459L90.402,90.473l7.071-7.071
			L160.287,146.217z"/>
		<path id="Oval-1-copy-10" fill="#CA2826" d="M33.784,160.287c-2.609-2.09-5.099-4.32-7.459-6.684l68.203-68.202l7.07,7.071
			L33.784,160.287z"/>
		<path id="Oval-1-copy-10_1_" fill="#CA2826" d="M146.217,19.712c2.608,2.09,5.099,4.321,7.459,6.684L95.473,84.598l-7.071-7.071
			L146.217,19.712z"/>
		<path id="Oval-1-copy-10_2_" fill="#CA2826" d="M19.712,33.784c2.09-2.609,4.321-5.099,6.684-7.459l57.202,57.202l-7.071,7.071
			L19.712,33.784z"/>
		<path id="Oval-1-copy-6_1_" fill="#FFFFFF" d="M178.756,105c0.818-4.878,1.244-9.889,1.244-15c0-5.111-0.426-10.122-1.244-15
			H1.244C0.426,79.878,0,84.889,0,90c0,5.111,0.426,10.122,1.244,15H178.756z"/>
		<path id="Oval-1-copy-5_1_" fill="#FFFFFF" d="M105,178.756c-4.878,0.818-9.889,1.244-15,1.244c-5.111,0-10.122-0.426-15-1.244
			V1.244C79.878,0.426,84.889,0,90,0c5.111,0,10.122,0.426,15,1.244V178.756z"/>
		<path id="Oval-1-copy-7" fill="#CA2826" d="M179.451,100c0.362-3.283,0.549-6.62,0.549-10s-0.187-6.717-0.549-10H0.549
			C0.187,83.283,0,86.62,0,90s0.187,6.717,0.549,10H179.451z"/>
		<path id="Oval-1-copy-7_1_" fill="#CA2826" d="M100,179.451C96.717,179.813,93.38,180,90,180s-6.717-0.187-10-0.549V0.549
			C83.283,0.187,86.62,0,90,0s6.717,0.187,10,0.549V179.451z"/>
	</g>
</g>
</svg>
