<?xml version="1.0" encoding="iso-8859-1"?>
<!-- Generator: Adobe Illustrator 13.0.2, SVG Export Plug-In . SVG Version: 6.00 Build 14948)  -->
<!DOCTYPE svg PUBLIC "-//W3C//DTD SVG 1.1//EN" "http://www.w3.org/Graphics/SVG/1.1/DTD/svg11.dtd">
<svg version="1.1" id="Layer_1" xmlns:sketch="http://www.bohemiancoding.com/sketch/ns"
	 xmlns="http://www.w3.org/2000/svg" xmlns:xlink="http://www.w3.org/1999/xlink" x="0px" y="0px" width="182px" height="182px"
	 viewBox="0 0 182 182" enable-background="new 0 0 182 182" xml:space="preserve">
<title></title>
<description></description>
<g id="Ameria">
	<g id="Group" transform="translate(-37.000000, 1.000000)">
		<g id="St.Kitts-and-Nevis" transform="translate(0.000000, 162.000000)">
			<path id="Oval-15-copy-2" fill="#CA4638" d="M191.693,64.414c-0.018-0.018-0.036-0.036-0.054-0.054
				c-0.019-0.018-0.036-0.036-0.054-0.054L191.693,64.414z"/>
			<path id="Oval-15-copy-3" fill="#479951" d="M192.325,65.054c-0.233-0.239-0.47-0.478-0.706-0.714
				c-0.237-0.237-0.476-0.473-0.715-0.707L192.325,65.054L192.325,65.054z"/>
		</g>
		<g id="US" transform="translate(38.000000, 0.000000)">
			<circle id="Oval-1-copy" fill="#FFFFFF" cx="90" cy="90" r="90"/>
			<path id="white" fill="#FFFFFF" d="M138.229,14c6.232,3.963,11.944,8.671,17.01,14l0,0H24.762
				c5.065-5.329,10.777-10.037,17.009-14H138.229z M166.146,42c2.793,4.421,5.212,9.103,7.211,14l0,0H6.644
				c2-4.897,4.418-9.579,7.211-14H166.146L166.146,42z M177.77,70c1.031,4.545,1.719,9.222,2.033,14l0,0H0.197
				c0.314-4.778,1.002-9.455,2.033-14H177.77L177.77,70z M179.649,98c-0.421,4.784-1.218,9.461-2.357,14l0,0H2.708
				c-1.14-4.539-1.936-9.216-2.357-14H179.649L179.649,98z M172.512,126c-2.146,4.91-4.717,9.593-7.667,14l0,0H15.155
				c-2.95-4.407-5.521-9.09-7.667-14H172.512L172.512,126z M153.277,154c-5.473,5.412-11.637,10.127-18.348,14l0,0H45.07
				c-6.71-3.873-12.874-8.588-18.347-14H153.277L153.277,154z"/>
			<path id="red" fill="#CA2323" d="M90,42h76.146l0,0c-3.175-5.024-6.831-9.713-10.907-14l0,0H90V42z M90,0
				c17.744,0,34.289,5.135,48.229,14l0,0H90V0z M90,70h87.77l0,0c-1.095-4.825-2.577-9.503-4.413-14l0,0H90V70z M0,90
				c0,2.695,0.119,5.364,0.351,8h179.299l0,0c0.231-2.636,0.351-5.305,0.351-8c0-2.016-0.066-4.017-0.197-6l0,0H90v6H0z
				 M177.292,112c-1.215,4.834-2.819,9.512-4.78,14l0,0H7.489c-1.961-4.488-3.566-9.166-4.781-14H177.292L177.292,112z M164.845,140
				c-3.382,5.051-7.261,9.742-11.567,14l0,0H26.723c-4.307-4.258-8.186-8.949-11.567-14H164.845L164.845,140z M134.93,168
				c-13.222,7.633-28.565,12-44.93,12s-31.708-4.367-44.93-12H134.93L134.93,168z"/>
			<path id="Oval-38-copy-3" fill="#346DB1" d="M90,0C40.294,0,0,40.294,0,90h90V0z"/>
			<g id="stars" transform="translate(7.000000, 9.000000)">
				<polygon id="Star-1" fill="#FFFFFF" points="27.415,25.462 24.686,27 25.207,23.744 23,21.438 26.05,20.962 27.415,18 
					28.778,20.962 31.829,21.438 29.622,23.744 30.143,27 				"/>
				<polygon id="Star-1_1_" fill="#FFFFFF" points="27.415,41.462 24.686,43 25.207,39.744 23,37.438 26.05,36.962 27.415,34 
					28.778,36.962 31.829,37.438 29.622,39.744 30.143,43 				"/>
				<polygon id="Star-1_2_" fill="#FFFFFF" points="16.415,35.462 13.686,37 14.207,33.744 12,31.438 15.05,30.962 16.415,28 
					17.778,30.962 20.829,31.438 18.622,33.744 19.143,37 				"/>
				<polygon id="Star-1_3_" fill="#FFFFFF" points="15.415,50.462 12.686,52 13.207,48.744 11,46.438 14.05,45.962 15.415,43 
					16.778,45.962 19.829,46.438 17.622,48.744 18.143,52 				"/>
				<polygon id="Star-1_4_" fill="#FFFFFF" points="25.415,60.462 22.686,62 23.207,58.744 21,56.438 24.05,55.962 25.415,53 
					26.778,55.962 29.829,56.438 27.622,58.744 28.143,62 				"/>
				<polygon id="Star-1_5_" fill="#FFFFFF" points="15.415,66.462 12.686,68 13.207,64.744 11,62.438 14.05,61.962 15.415,59 
					16.778,61.962 19.829,62.438 17.622,64.744 18.143,68 				"/>
				<polygon id="Star-1_6_" fill="#FFFFFF" points="4.415,58.462 1.686,60 2.207,56.744 0,54.438 3.05,53.962 4.415,51 
					5.778,53.962 8.829,54.438 6.622,56.744 7.143,60 				"/>
				<polygon id="Star-1_7_" fill="#FFFFFF" points="4.415,74.462 1.686,76 2.207,72.744 0,70.438 3.05,69.962 4.415,67 
					5.778,69.962 8.829,70.438 6.622,72.744 7.143,76 				"/>
				<polygon id="Star-1_8_" fill="#FFFFFF" points="27.415,74.462 24.686,76 25.207,72.744 23,70.438 26.05,69.962 27.415,67 
					28.778,69.962 31.829,70.438 29.622,72.744 30.143,76 				"/>
				<polygon id="Star-1_9_" fill="#FFFFFF" points="73.415,7.462 70.686,9 71.207,5.744 69,3.438 72.05,2.962 73.415,0 
					74.778,2.962 77.829,3.438 75.622,5.744 76.143,9 				"/>
				<polygon id="Star-1_10_" fill="#FFFFFF" points="73.415,23.462 70.686,25 71.207,21.744 69,19.438 72.05,18.962 73.415,16 
					74.778,18.962 77.829,19.438 75.622,21.744 76.143,25 				"/>
				<polygon id="Star-1_11_" fill="#FFFFFF" points="73.415,39.462 70.686,41 71.207,37.744 69,35.438 72.05,34.962 73.415,32 
					74.778,34.962 77.829,35.438 75.622,37.744 76.143,41 				"/>
				<polygon id="Star-1_12_" fill="#FFFFFF" points="73.415,55.462 70.686,57 71.207,53.744 69,51.438 72.05,50.962 73.415,48 
					74.778,50.962 77.829,51.438 75.622,53.744 76.143,57 				"/>
				<polygon id="Star-1_13_" fill="#FFFFFF" points="61.415,16.462 58.686,18 59.207,14.744 57,12.438 60.05,11.962 61.415,9 
					62.778,11.962 65.829,12.438 63.622,14.744 64.143,18 				"/>
				<polygon id="Star-1_14_" fill="#FFFFFF" points="61.415,32.462 58.686,34 59.207,30.744 57,28.438 60.05,27.962 61.415,25 
					62.778,27.962 65.829,28.438 63.622,30.744 64.143,34 				"/>
				<polygon id="Star-1_15_" fill="#FFFFFF" points="61.415,48.462 58.686,50 59.207,46.744 57,44.438 60.05,43.962 61.415,41 
					62.778,43.962 65.829,44.438 63.622,46.744 64.143,50 				"/>
				<polygon id="Star-1_16_" fill="#FFFFFF" points="61.415,64.462 58.686,66 59.207,62.744 57,60.438 60.05,59.962 61.415,57 
					62.778,59.962 65.829,60.438 63.622,62.744 64.143,66 				"/>
				<polygon id="Star-1_17_" fill="#FFFFFF" points="73.415,72.462 70.686,74 71.207,70.744 69,68.438 72.05,67.962 73.415,65 
					74.778,67.962 77.829,68.438 75.622,70.744 76.143,74 				"/>
				<polygon id="Star-1_18_" fill="#FFFFFF" points="51.415,9.462 48.686,11 49.207,7.744 47,5.438 50.05,4.962 51.415,2 
					52.778,4.962 55.829,5.438 53.622,7.744 54.143,11 				"/>
				<polygon id="Star-1_19_" fill="#FFFFFF" points="51.415,25.462 48.686,27 49.207,23.744 47,21.438 50.05,20.962 51.415,18 
					52.778,20.962 55.829,21.438 53.622,23.744 54.143,27 				"/>
				<polygon id="Star-1_20_" fill="#FFFFFF" points="51.415,41.462 48.686,43 49.207,39.744 47,37.438 50.05,36.962 51.415,34 
					52.778,36.962 55.829,37.438 53.622,39.744 54.143,43 				"/>
				<polygon id="Star-1_21_" fill="#FFFFFF" points="51.415,57.462 48.686,59 49.207,55.744 47,53.438 50.05,52.962 51.415,50 
					52.778,52.962 55.829,53.438 53.622,55.744 54.143,59 				"/>
				<polygon id="Star-1_22_" fill="#FFFFFF" points="39.415,18.462 36.686,20 37.207,16.744 35,14.438 38.05,13.962 39.415,11 
					40.778,13.962 43.829,14.438 41.622,16.744 42.143,20 				"/>
				<polygon id="Star-1_23_" fill="#FFFFFF" points="39.415,34.462 36.686,36 37.207,32.744 35,30.438 38.05,29.962 39.415,27 
					40.778,29.962 43.829,30.438 41.622,32.744 42.143,36 				"/>
				<polygon id="Star-1_24_" fill="#FFFFFF" points="39.415,50.462 36.686,52 37.207,48.744 35,46.438 38.05,45.962 39.415,43 
					40.778,45.962 43.829,46.438 41.622,48.744 42.143,52 				"/>
				<polygon id="Star-1_25_" fill="#FFFFFF" points="39.415,66.462 36.686,68 37.207,64.744 35,62.438 38.05,61.962 39.415,59 
					40.778,61.962 43.829,62.438 41.622,64.744 42.143,68 				"/>
				<polygon id="Star-1_26_" fill="#FFFFFF" points="51.415,74.462 48.686,76 49.207,72.744 47,70.438 50.05,69.962 51.415,67 
					52.778,69.962 55.829,70.438 53.622,72.744 54.143,76 				"/>
			</g>
		</g>
	</g>
</g>
</svg>
