<?xml version="1.0" ?><svg height="182px" version="1.1" viewBox="0 0 182 182" width="182px" xmlns="http://www.w3.org/2000/svg" xmlns:sketch="http://www.bohemiancoding.com/sketch/ns" xmlns:xlink="http://www.w3.org/1999/xlink"><title/><description/><defs/><g fill="none" fill-rule="evenodd" id="Asia-Pacific" stroke="none" stroke-width="1"><g id="Australia" transform="translate(-999.000000, 1.000000)"><g transform="translate(1000.000000, 0.000000)"><circle cx="90" cy="90" d="M90,180 C139.70563,180 180,139.70563 180,90 C180,40.2943701 139.70563,0 90,0 C40.2943701,0 0,40.2943701 0,90 C0,139.70563 40.2943701,180 90,180 Z M90,180" fill="#346DA6" id="Oval-15-copy-4" r="90"/><path d="M127,29 L128.977964,35.3080401 L135.019377,32.9612453 L131.444444,38.4804478 L137,41.8620826 L130.564168,42.4363755 L131.450419,49 L127,44.196929 L122.549581,49 L123.435832,42.4363755 L117,41.8620826 L122.555556,38.4804478 L118.980623,32.9612453 L125.022036,35.3080401 L127,29 L127,29 Z M127,29" fill="#FFFFFF" id="Star7"/><path d="M153,71 L154.977964,77.3080401 L161.019377,74.9612453 L157.444444,80.4804478 L163,83.8620826 L156.564168,84.4363755 L157.450419,91 L153,86.196929 L148.549581,91 L149.435832,84.4363755 L143,83.8620826 L148.555556,80.4804478 L144.980623,74.9612453 L151.022036,77.3080401 L153,71 L153,71 Z M153,71" fill="#FFFFFF" id="Star7"/><path d="M106,60 L107.977964,66.3080401 L114.019377,63.9612453 L110.444444,69.4804478 L116,72.8620826 L109.564168,73.4363755 L110.450419,80 L106,75.196929 L101.549581,80 L102.435832,73.4363755 L96,72.8620826 L101.555556,69.4804478 L97.9806227,63.9612453 L104.022036,66.3080401 L106,60 L106,60 Z M106,60" fill="#FFFFFF" id="Star7"/><path d="M127,126 L128.977964,132.30804 L135.019377,129.961245 L131.444444,135.480448 L137,138.862083 L130.564168,139.436376 L131.450419,146 L127,141.196929 L122.549581,146 L123.435832,139.436376 L117,138.862083 L122.555556,135.480448 L118.980623,129.961245 L125.022036,132.30804 L127,126 L127,126 Z M127,126" fill="#FFFFFF" id="Star7"/><path d="M53,104 L57.1537242,117.246884 L69.8406924,112.318615 L62.3333332,123.90894 L74,131.010374 L60.4847521,132.216389 L62.3458794,146 L53,135.913551 L43.6541206,146 L45.5152479,132.216389 L32,131.010374 L43.6666668,123.90894 L36.1593076,112.318615 L48.8462758,117.246884 L53,104 L53,104 Z M53,104" fill="#FFFFFF" id="Star7"/><path d="M133.5,98 L134.7347,101.870933 L139,101.870933 L135.632503,104.236712 L136.86735,108 L133.5,105.634355 L130.13265,107.892355 L131.36735,104.236712 L128,101.870933 L132.153001,101.870933 L133.5,98 L133.5,98 Z M133.5,98" fill="#FFFFFF" id="polygon5131"/><g id="UK"><path d="M22.034956,31 C14.2537027,39.9559217 8.21335943,50.4648712 4.44077468,62 L94,62 L94,31 L22.034956,31 Z M22.034956,31" fill="#FFFFFF" id="Oval-15-copy-5"/><path d="M13.6694832,42.2945092 C10.3709868,47.5610961 7.60242976,53.1934706 5.43852161,59.1169231 L73.204828,93 L94,93 L94,82.602228 L13.6694832,42.2945092 Z M13.6694832,42.2945092" fill="#FFFFFF" id="Oval-15-copy-5"/><path d="M94.0000386,0.0873002869 C92.67394,0.0293019687 91.3403919,0 90,0 C82.2561892,0 74.7408046,0.978008608 67.5706263,2.81724582 L33.78699,19.7099388 C22.8828875,28.4416094 14.0545834,39.6579269 8.16034695,52.5006221 L94,10.3974 L94,0.0872986002 Z M94.0000386,0.0873002869" fill="#FFFFFF" id="Oval-15-copy-5"/><path d="M16,38.7607807 C5.91185383,53.3026912 0,70.9609515 0,90 C0,91.0039293 0.0164376398,92.0040194 0.0490584628,93.0000158 L16,93 L16,38.7607807 Z M16,38.7607807" fill="#FFFFFF" id="Oval-15-copy-5"/><path d="M17.2529958,37 C12.9908238,42.8401877 9.41486216,49.2130514 6.64370346,55.9999986 L94,56 L94,37 L17.2529958,37 Z M17.2529958,37" fill="#CA4638" id="Oval-15-copy-5"/><path d="M10.9999966,46.8485332 C3.98708297,59.660287 0,74.3645266 0,90 C0,91.0039293 0.0164376398,92.0040194 0.0490584628,93.0000158 L11,93 L11,46.8485271 Z M10.9999966,46.8485332" fill="#CA4638" id="Oval-15-copy-5"/><path d="M93.8389177,0.0803962802 C92.565936,0.0269770907 91.2861184,0 90,0 C86.1745509,0 82.4048463,0.238670122 78.7049644,0.701932021 L25.4542081,27.2795777 C24.2803472,28.4873857 23.1400934,29.7280296 22.034956,31 L31.8882776,31 L93.8389177,0.0803962802 Z M93.8389177,0.0803962802" fill="#CA4638" id="Oval-15-copy-5"/><path d="M94,93 L32,62 L45.8636683,62 L94,86.0681243 L94,93 Z M94,93" fill="#CA4638" id="Oval-15-copy-5"/></g></g></g></g></svg>