<?xml version="1.0" encoding="UTF-8"?>
<!DOCTYPE svg PUBLIC "-//W3C//DTD SVG 1.1//EN" "http://www.w3.org/Graphics/SVG/1.1/DTD/svg11.dtd">
<svg version="1.1" xmlns="http://www.w3.org/2000/svg" xmlns:xlink="http://www.w3.org/1999/xlink" width="253" height="25" xml:space="preserve">
   <g transform="matrix(1.094571,0,0,1.094554,-32.50876,-35.354094)">
      <path d="m 142.4,33.6 c 0,-0.4 0.3,-0.8 0.8,-0.8 0.4,0 0.8,0.3 0.8,0.8 v 18.9 c 0,0.4 -0.3,0.8 -0.8,0.8 -0.4,0 -0.8,-0.3 -0.8,-0.8 V 33.6 z" style="fill:#ffffff" />
      <path d="m 150.1,33.6 c 0,-0.4 0.3,-0.8 0.8,-0.8 h 0.2 c 0.3,0 0.5,0.2 0.8,0.4 l 13.6,17.3 v -17 c 0,-0.4 0.3,-0.7 0.7,-0.7 0.4,0 0.7,0.3 0.7,0.7 v 19.1 c 0,0.3 -0.3,0.6 -0.6,0.6 h -0.1 c -0.3,0 -0.5,-0.2 -0.8,-0.5 L 151.5,35.1 v 17.4 c 0,0.4 -0.3,0.7 -0.7,0.7 -0.4,0 -0.7,-0.3 -0.7,-0.7 V 33.6 z" style="fill:#ffffff" />
      <path d="m 172.1,50.6 c -0.1,-0.1 -0.3,-0.3 -0.3,-0.6 0,-0.4 0.3,-0.8 0.8,-0.8 0.2,0 0.4,0.1 0.5,0.2 2,1.8 4,2.6 6.8,2.6 3,0 5.1,-1.7 5.1,-4 v 0 c 0,-2.1 -1.1,-3.4 -5.7,-4.3 -4.9,-1 -6.8,-2.6 -6.8,-5.7 v 0 c 0,-3 2.7,-5.3 6.5,-5.3 2.7,0 4.6,0.7 6.4,2.1 0.1,0.1 0.3,0.3 0.3,0.6 0,0.4 -0.3,0.8 -0.8,0.8 -0.2,0 -0.3,-0.1 -0.5,-0.2 -1.8,-1.4 -3.5,-1.9 -5.6,-1.9 -3,0 -4.9,1.7 -4.9,3.8 V 38 c 0,2.1 1.1,3.4 5.9,4.4 4.7,1 6.6,2.6 6.6,5.6 v 0.1 c 0,3.3 -2.8,5.5 -6.7,5.5 -3,-0.2 -5.3,-1.1 -7.6,-3 z" style="fill:#ffffff" />
      <path d="m 191.6,33.6 c 0,-0.4 0.3,-0.8 0.8,-0.8 0.5,0 0.8,0.3 0.8,0.8 v 18.9 c 0,0.4 -0.3,0.8 -0.8,0.8 -0.5,0 -0.8,-0.3 -0.8,-0.8 V 33.6 z" style="fill:#ffffff" />
      <path d="m 198.4,43.1 0,0 c 0,-5.5 4,-10.5 10,-10.5 3,0 5,0.8 6.9,2.3 0.2,0.1 0.3,0.3 0.3,0.6 0,0.4 -0.3,0.8 -0.8,0.8 -0.1,0 -0.3,-0.1 -0.5,-0.2 -1.6,-1.2 -3.3,-2 -6.1,-2 -4.9,0 -8.3,4.2 -8.3,9 V 43 c 0,5.2 3.3,9.1 8.7,9.1 2.6,0 5,-1.1 6.4,-2.3 V 44 h -6.3 c -0.4,0 -0.7,-0.3 -0.7,-0.7 0,-0.4 0.3,-0.7 0.7,-0.7 h 7 c 0.4,0 0.8,0.3 0.8,0.8 V 50 c 0,0.3 -0.2,0.6 -0.5,0.9 -1.9,1.5 -4.4,2.6 -7.4,2.6 -6.4,0 -10.2,-4.7 -10.2,-10.4 z" style="fill:#ffffff" />
      <path d="m 222,33.6 c 0,-0.4 0.3,-0.8 0.8,-0.8 0.4,0 0.8,0.3 0.8,0.8 v 8.7 h 12.9 v -8.7 c 0,-0.4 0.3,-0.8 0.8,-0.8 0.4,0 0.8,0.3 0.8,0.8 v 18.9 c 0,0.4 -0.3,0.8 -0.8,0.8 -0.4,0 -0.8,-0.3 -0.8,-0.8 v -8.8 h -12.9 v 8.8 c 0,0.4 -0.3,0.8 -0.8,0.8 -0.4,0 -0.8,-0.3 -0.8,-0.8 V 33.6 z" style="fill:#ffffff" />
      <path d="M 249.5,34.3 H 243 c -0.4,0 -0.7,-0.3 -0.7,-0.7 0,-0.4 0.3,-0.7 0.7,-0.7 h 14.4 c 0.4,0 0.7,0.3 0.7,0.7 0,0.4 -0.3,0.7 -0.7,0.7 H 251 v 18.2 c 0,0.4 -0.3,0.8 -0.8,0.8 -0.4,0 -0.8,-0.3 -0.8,-0.8 V 34.3 z" style="fill:#ffffff" />
      <path d="m 46.5,47.9 c -0.3,0 -0.7,0.2 -0.9,0.4 -1.8,1.6 -3.4,2.3 -5.6,2.3 -4.1,0 -7.3,-3.4 -7.3,-7.9 0,-4.4 3.1,-7.7 7.3,-7.7 2.1,0 3.7,0.7 5.5,2.2 0.1,0.1 0.5,0.3 0.9,0.3 0.8,0 1.5,-0.7 1.5,-1.4 0,-0.4 -0.2,-0.8 -0.6,-1.2 -1.6,-1.3 -3.7,-2.6 -7.3,-2.6 -5.8,0 -10.3,4.6 -10.3,10.6 0,6 4.4,10.5 10.2,10.5 3,0 5.3,-0.9 7.6,-3 0.3,-0.3 0.5,-0.7 0.5,-1.1 -0.1,-0.8 -0.7,-1.4 -1.5,-1.4 z" style="fill:#ffffff" />
      <path d="M 65.2,50.4 H 55.3 V 34.1 c 0,-0.8 -0.7,-1.5 -1.5,-1.5 -0.8,0 -1.4,0.7 -1.4,1.5 v 17.6 c 0,0.8 0.7,1.5 1.4,1.5 h 11.4 c 0.8,0 1.4,-0.6 1.4,-1.4 -0.1,-0.8 -0.7,-1.4 -1.4,-1.4 z" style="fill:#ffffff" />
      <path d="m 106.8,32.4 c -0.8,0 -1.4,0.7 -1.4,1.5 v 17.8 c 0,0.8 0.7,1.5 1.4,1.5 0.8,0 1.5,-0.7 1.5,-1.5 V 33.9 c -0.1,-0.8 -0.7,-1.5 -1.5,-1.5 z" style="fill:#ffffff" />
      <path d="m 123,41.4 c -4.3,-0.9 -5.1,-1.9 -5.1,-3.5 0,-1.7 1.6,-2.8 3.8,-2.8 1.8,0 3.3,0.5 4.9,1.7 0.3,0.2 0.5,0.3 0.9,0.3 0.8,0 1.4,-0.6 1.4,-1.4 0,-0.6 -0.4,-1 -0.6,-1.2 -1.9,-1.4 -3.9,-2 -6.5,-2 -4,0 -6.8,2.4 -6.8,5.8 0,3.8 2.8,5.1 6.9,6 4.1,0.9 4.9,1.8 4.9,3.5 0,1.8 -1.7,3 -4,3 -2.3,0 -4.1,-0.7 -6,-2.2 -0.2,-0.2 -0.6,-0.4 -0.9,-0.4 -0.8,0 -1.4,0.6 -1.4,1.4 0,0.5 0.2,0.9 0.6,1.1 2.3,1.8 4.8,2.7 7.7,2.7 4.2,0 7.1,-2.4 7.1,-6 -0.2,-3.2 -2.2,-5 -6.9,-6 z" style="fill:#ffffff" />
      <path d="m 92.1,52.1 c 0.4,-0.9 8.7,-17.6 8.7,-17.6 0.3,-0.7 0.1,-1.5 -0.6,-1.9 -0.2,-0.1 -0.4,-0.1 -0.5,-0.1 -0.5,0 -1.1,0.2 -1.3,0.8 L 90.8,48.6 83.2,33.3 c -0.3,-0.5 -0.8,-0.8 -1.3,-0.8 -0.2,0 -0.4,0.1 -0.5,0.1 -0.7,0.3 -1,1.2 -0.6,1.9 0,0 8.3,16.8 8.7,17.6 0.4,0.8 0.9,1.1 1.4,1.1 0.3,-0.1 0.7,-0.3 1.2,-1.1 z" style="opacity:0.7;fill:#ffffff" />
      <path d="m 72.9,33.6 c 0.4,0.9 8.7,17.6 8.7,17.6 0.3,0.7 0.1,1.5 -0.6,1.9 -0.2,0.1 -0.4,0.1 -0.5,0.1 -0.5,0 -1.1,-0.2 -1.3,-0.8 L 71.6,37 l -5,10 c -0.3,0.5 -0.8,0.8 -1.3,0.8 -0.2,0 -0.4,-0.1 -0.5,-0.1 -0.7,-0.3 -1,-1.2 -0.6,-1.9 0,0 5.6,-11.4 6,-12.2 0.4,-0.8 0.9,-1.1 1.4,-1.1 0.4,0 0.9,0.2 1.3,1.1 z" style="opacity:0.7;fill:#ffffff" />
   </g>
</svg>
