<?xml version="1.0" encoding="iso-8859-1"?>
<!-- Generator: Adobe Illustrator 13.0.2, SVG Export Plug-In . SVG Version: 6.00 Build 14948)  -->
<!DOCTYPE svg PUBLIC "-//W3C//DTD SVG 1.1//EN" "http://www.w3.org/Graphics/SVG/1.1/DTD/svg11.dtd">
<svg version="1.1" id="Layer_1" xmlns="http://www.w3.org/2000/svg" xmlns:xlink="http://www.w3.org/1999/xlink" x="0px" y="0px"
	 width="184.923px" height="23.739px" viewBox="0 0 184.923 23.739" enable-background="new 0 0 184.923 23.739"
	 xml:space="preserve">
<path fill="#203C70" d="M6.544,17.184H3.296v6.354H0V6.657h6.544c3.484,0,5.572,2.394,5.572,5.262S10.028,17.184,6.544,17.184z
	 M6.378,9.599H3.296v4.622h3.082c1.494,0,2.442-0.927,2.442-2.302S7.872,9.599,6.378,9.599z"/>
<path fill="#203C70" d="M14.938,18.323c0,1.588,0.971,2.75,2.702,2.75c1.352,0,2.015-0.38,2.797-1.162l1.874,1.824
	c-1.257,1.257-2.466,1.947-4.695,1.947c-2.916,0-5.713-1.328-5.713-6.333c0-4.031,2.181-6.305,5.383-6.305
	c3.437,0,5.381,2.513,5.381,5.903v1.375H14.938z M19.347,14.882c-0.332-0.732-1.02-1.278-2.062-1.278
	c-1.045,0-1.732,0.546-2.063,1.278c-0.19,0.454-0.262,0.785-0.284,1.328h4.694C19.608,15.667,19.538,15.335,19.347,14.882z"/>
<path fill="#203C70" d="M30.326,14.551c-0.475-0.472-0.877-0.732-1.636-0.732c-0.949,0-1.992,0.709-1.992,2.273v7.447h-3.083V11.187
	h3.012v1.186c0.593-0.713,1.778-1.328,3.106-1.328c1.208,0,2.063,0.308,2.917,1.16L30.326,14.551z"/>
<path fill="#203C70" d="M36.917,13.89v9.648h-3.083V13.89h-1.279v-2.349h1.279V10c0-1.753,1.091-3.533,3.605-3.533h1.754v2.607
	h-1.209c-0.735,0-1.067,0.403-1.067,1.116v1.351h2.276v2.349H36.917z"/>
<path fill="#203C70" d="M42.024,18.323c0,1.588,0.972,2.75,2.703,2.75c1.352,0,2.016-0.38,2.798-1.162l1.874,1.824
	c-1.257,1.257-2.466,1.947-4.695,1.947c-2.916,0-5.714-1.328-5.714-6.333c0-4.031,2.181-6.305,5.382-6.305
	c3.438,0,5.383,2.513,5.383,5.903v1.375H42.024z M46.434,14.882c-0.332-0.732-1.02-1.278-2.062-1.278
	c-1.043,0-1.731,0.546-2.063,1.278c-0.19,0.454-0.26,0.785-0.285,1.328h4.695C46.695,15.667,46.625,15.335,46.434,14.882z"/>
<path fill="#203C70" d="M55.896,23.682c-2.466,0-5.525-1.328-5.525-6.333c0-5,3.059-6.305,5.525-6.305
	c1.707,0,2.988,0.521,4.079,1.659l-2.086,2.084c-0.641-0.685-1.185-0.969-1.992-0.969c-0.735,0-1.305,0.26-1.755,0.803
	c-0.473,0.596-0.688,1.422-0.688,2.727s0.214,2.16,0.688,2.751c0.45,0.545,1.02,0.805,1.755,0.805c0.807,0,1.352-0.282,1.992-0.971
	l2.086,2.063C58.884,23.134,57.603,23.682,55.896,23.682z"/>
<path fill="#203C70" d="M64.812,23.539c-2.513,0-3.58-1.779-3.58-3.533V13.89h-1.305v-2.349h1.305V7.888h3.082v3.653h2.181v2.349
	h-2.181v5.926c0,0.711,0.332,1.115,1.066,1.115h1.115v2.607H64.812z"/>
<path fill="#203C70" d="M77.306,23.682c-2.561,0-4.505-0.548-6.164-2.231l2.134-2.133c1.067,1.068,2.513,1.422,4.079,1.422
	c1.944,0,2.987-0.734,2.987-2.086c0-0.593-0.166-1.092-0.521-1.423c-0.332-0.307-0.713-0.472-1.495-0.593l-2.038-0.283
	c-1.447-0.215-2.513-0.665-3.273-1.4c-0.806-0.805-1.208-1.896-1.208-3.32c0-3.01,2.228-5.121,5.88-5.121
	c2.323,0,4.006,0.57,5.452,1.969l-2.086,2.061c-1.067-1.018-2.348-1.161-3.462-1.161c-1.754,0-2.608,0.971-2.608,2.134
	c0,0.425,0.143,0.877,0.499,1.21c0.332,0.307,0.878,0.566,1.565,0.664l1.992,0.283c1.541,0.216,2.512,0.641,3.224,1.305
	c0.9,0.853,1.305,2.086,1.305,3.58C83.567,21.833,80.84,23.682,77.306,23.682z"/>
<path fill="#203C70" d="M98.974,22.164c-0.76,0.805-2.017,1.519-3.841,1.519c-1.827,0-3.06-0.714-3.818-1.519
	c-1.115-1.161-1.398-2.561-1.398-4.814c0-2.229,0.283-3.626,1.398-4.787c0.758-0.809,1.991-1.518,3.818-1.518
	c1.824,0,3.081,0.709,3.841,1.518c1.112,1.161,1.398,2.559,1.398,4.787C100.373,19.603,100.086,21.002,98.974,22.164z M96.58,14.362
	c-0.356-0.354-0.832-0.543-1.446-0.543c-0.616,0-1.067,0.189-1.425,0.543c-0.64,0.64-0.711,1.706-0.711,2.987
	c0,1.281,0.071,2.373,0.711,3.011c0.357,0.356,0.809,0.545,1.425,0.545c0.614,0,1.09-0.188,1.446-0.545
	c0.641-0.638,0.711-1.729,0.711-3.011C97.291,16.068,97.22,15.002,96.58,14.362z"/>
<path fill="#203C70" d="M108.125,14.551c-0.476-0.472-0.876-0.732-1.636-0.732c-0.949,0-1.991,0.709-1.991,2.273v7.447h-3.084
	V11.187h3.013v1.186c0.593-0.713,1.777-1.328,3.104-1.328c1.211,0,2.063,0.308,2.917,1.16L108.125,14.551z"/>
<path fill="#203C70" d="M112.464,18.323c0,1.588,0.974,2.75,2.703,2.75c1.352,0,2.016-0.38,2.797-1.162l1.875,1.824
	c-1.258,1.257-2.468,1.947-4.695,1.947c-2.917,0-5.715-1.328-5.715-6.333c0-4.031,2.183-6.305,5.381-6.305
	c3.44,0,5.384,2.513,5.384,5.903v1.375H112.464z M116.874,14.882c-0.331-0.732-1.019-1.278-2.063-1.278
	c-1.041,0-1.729,0.546-2.062,1.278c-0.189,0.454-0.26,0.785-0.283,1.328h4.695C117.136,15.667,117.065,15.335,116.874,14.882z"/>
<path fill="#882475" d="M150.045,23.539v-7.47c0-1.682-1.068-2.25-2.039-2.25c-0.972,0-2.063,0.567-2.063,2.25v7.47h-3.081V11.187
	h3.011v1.136c0.806-0.854,1.944-1.279,3.081-1.279c1.233,0,2.231,0.402,2.916,1.089c0.997,0.995,1.259,2.157,1.259,3.509v7.896
	H150.045z"/>
<path fill="#882475" d="M157.562,23.539c-2.538,0-3.604-1.779-3.604-3.533V6.657h3.081v13.159c0,0.735,0.31,1.115,1.093,1.115h1.183
	v2.607H157.562z"/>
<path fill="#882475" d="M158.937,23.539V11.187h3.082v12.352H158.937z"/>
<path fill="#882475" d="M170.271,23.539v-7.47c0-1.682-1.066-2.25-2.04-2.25c-0.972,0-2.062,0.567-2.062,2.25v7.47h-3.081V11.187
	h3.01v1.136c0.807-0.854,1.944-1.279,3.081-1.279c1.234,0,2.229,0.402,2.919,1.089c0.994,0.995,1.255,2.157,1.255,3.509v7.896
	H170.271z"/>
<path fill="#882475" d="M177.194,18.323c0,1.588,0.971,2.75,2.703,2.75c1.353,0,2.017-0.38,2.798-1.162l1.871,1.824
	c-1.255,1.257-2.464,1.947-4.692,1.947c-2.919,0-5.714-1.328-5.714-6.333c0-4.031,2.182-6.305,5.38-6.305
	c3.438,0,5.384,2.513,5.384,5.903v1.375H177.194z M181.603,14.882c-0.331-0.732-1.018-1.278-2.063-1.278
	c-1.042,0-1.729,0.546-2.062,1.278c-0.19,0.454-0.26,0.785-0.284,1.328h4.695C181.863,15.667,181.794,15.335,181.603,14.882z"/>
<path fill="#203C70" d="M95.979,0l-11.63,7.079v4.462h-1.305v2.349h1.305v6.115c0,1.754,1.065,3.533,3.58,3.533h1.682v-2.607h-1.113
	c-0.736,0-1.068-0.404-1.068-1.115V13.89h2.181v-2.349H87.43V8.975l8.45-5.132l11.631,6.979v-3.54L95.979,0z"/>
<path fill="#882475" d="M140.054,9.112c-1.235,0.002-2.346,0.52-3.138,1.347c0.109,0.064,0.217,0.13,0.328,0.203
	c1.248,0.826,1.902,1.885,2.162,3.166c0.274,1.356-0.155,2.454-0.9,3.691c0.479,0.185,1.002,0.291,1.548,0.293
	c0.617-0.002,1.202-0.132,1.734-0.364V9.476C141.256,9.244,140.671,9.112,140.054,9.112z M135.707,13.461
	c0,0.905,0.279,1.747,0.751,2.441c0.499-0.893,0.574-1.33,0.501-1.833c-0.072-0.558-0.397-1.106-0.982-1.498
	c-0.053-0.033-0.104-0.062-0.154-0.09C135.749,12.798,135.707,13.125,135.707,13.461z M134.199,12.235
	c-0.723,0.189-1.17,0.624-2.57,2.737c-1.404,2.112-1.633,2.693-1.525,3.431c0.074,0.561,0.414,1.12,1.001,1.508
	c0.585,0.391,1.217,0.478,1.761,0.326c0.725-0.187,1.186-0.614,2.587-2.728c0.052-0.08,0.102-0.153,0.15-0.229
	c-0.881-1.027-1.415-2.361-1.415-3.819c0-0.429,0.05-0.848,0.136-1.25C134.282,12.219,134.24,12.226,134.199,12.235z M137.67,18.821
	c-0.026,0.038-0.05,0.073-0.076,0.111c-1.259,1.899-2.154,3.28-4,3.653c-1.283,0.261-2.51,0.066-3.76-0.761
	c-1.247-0.831-1.919-1.896-2.179-3.181c-0.371-1.846,0.569-3.197,1.829-5.094c1.258-1.896,2.139-3.29,3.986-3.663
	c0.654-0.133,1.3-0.143,1.942-0.01c1.072-1.39,2.75-2.283,4.641-2.283c0.494,0,0.975,0.062,1.432,0.178
	c-0.368-0.596-1.032-0.995-1.795-0.995H126.93c-1.157,0-2.098,0.922-2.098,2.056v12.85c0,1.137,0.94,2.056,2.098,2.056h12.761
	c1.159,0,2.098-0.919,2.098-2.056v-2.616c-0.545,0.17-1.129,0.262-1.734,0.262C139.207,19.329,138.398,19.145,137.67,18.821z"/>
<path fill="#882475" d="M162.383,7.66c0,1.064-0.882,1.924-1.972,1.924c-1.089,0-1.973-0.86-1.973-1.924
	c0-1.058,0.884-1.921,1.973-1.921C161.501,5.739,162.383,6.603,162.383,7.66z"/>
</svg>
